<svg width="35" height="26" viewBox="0 0 35 26" fill="none" xmlns="http://www.w3.org/2000/svg">
<path d="M7.05886 1.63024C7.63148 1.20036 9.088 0.704912 10.0591 0.60969C10.2902 0.587046 10.7833 0.577604 11.1548 0.588778C12.8118 0.638465 14.4195 1.23586 15.4781 2.1951C15.6835 2.38135 16.4121 3.2742 16.3812 3.30188C16.3438 3.3355 15.3607 3.52753 14.9578 3.57999C14.4306 3.64856 14.1609 3.61084 13.5446 3.38227C12.8522 3.12538 12.7419 3.08603 12.4193 2.98082C11.9429 2.82547 11.1508 2.68427 10.6029 2.65713L10.0838 2.63137L10.4793 2.79927C10.8603 2.96094 11.4108 3.27143 11.6165 3.44057L12.012 3.76549C12.6147 4.26049 13.0243 4.39477 13.9154 4.38963C14.6794 4.38523 15.1111 4.29861 16.1492 3.94165C16.494 3.82304 16.8381 3.72604 16.9139 3.72604C17.1504 3.72604 19.203 4.47254 19.9096 4.81546C20.7252 5.21133 21.2842 5.7176 21.4858 6.24281C21.6151 6.57985 21.658 7.15687 21.5835 7.55769C21.4996 8.00918 21.1773 8.62388 20.7928 9.06563C20.667 9.21025 20.634 9.22646 20.5921 9.16451C20.5646 9.12372 20.5414 9.04585 20.5406 8.99147C20.5348 8.5599 20.2083 8.01329 19.8461 7.82848C19.4187 7.61044 18.881 7.53326 17.9344 7.55418C17.008 7.5746 16.4238 7.6539 15.6799 7.86027C15.1891 7.99643 14.4059 8.29915 13.9535 8.52757C13.0276 8.99493 11.6522 9.93183 10.8543 10.6387C9.47057 11.8645 8.17246 13.3857 7.22177 14.8954C6.94885 15.3288 6.38216 16.3429 6.19647 16.7301C5.59072 17.9934 5.24112 18.8891 4.99071 19.819C4.72096 20.8208 4.71507 20.8191 4.74459 19.7448C4.75912 19.2146 4.79205 18.5249 4.81776 18.2122C4.84347 17.8994 4.88915 17.3432 4.91921 16.9761C5.05181 15.3575 5.31993 13.5687 5.63442 12.2051C6.07049 10.3143 6.66126 8.6395 7.77847 6.12702C7.97119 5.69368 8.11872 5.32895 8.10636 5.31659C7.99106 5.2013 6.21639 7.57262 5.67066 8.57122C5.45891 8.95869 4.84421 10.1908 4.74568 10.4252C4.0452 12.092 3.5812 13.8465 3.35308 15.6907C3.23952 16.6089 3.21025 19.5316 3.30389 20.61C3.38512 21.5457 3.5236 22.4691 3.68201 23.1315C3.84304 23.8046 3.91769 24.1945 3.88531 24.1931C3.79572 24.1891 2.87746 22.4039 2.401 21.3075C1.52224 19.2853 0.984774 17.4215 0.681455 15.3446C0.542032 14.3901 0.554689 12.1388 0.704247 11.2905C1.06714 9.2319 1.72406 7.56367 2.93783 5.61833C3.52395 4.67895 4.72852 3.35147 5.72243 2.54969C6.10792 2.23871 6.80987 1.74841 6.86965 1.74841C6.88715 1.74841 6.97229 1.69526 7.05886 1.63024Z" fill="#D4FF79"/>
<path d="M13.0008 14.6802C14.9907 13.711 17.3111 13.1337 19.7494 13.0011C20.2364 12.9746 22.0364 13.0201 22.5676 13.0723C24.1346 13.2263 26.1866 13.7178 27.6244 14.2836C28.8485 14.7652 30.1057 15.388 31.2938 16.101C31.59 16.2788 33.0576 17.2641 33.2526 17.4162C33.5615 17.6569 34.4256 18.3831 34.4158 18.3937C34.4115 18.3984 34.1857 18.337 33.9139 18.2572C32.5524 17.8575 30.2632 17.3544 28.1049 16.9805C25.6268 16.5512 22.4051 16.3796 20.0548 16.5517C16.5494 16.8085 13.5286 17.6333 11.0726 19.0041C10.991 19.0496 10.7908 19.1611 10.6276 19.2518C9.69489 19.7705 8.01297 21.0913 7.29697 21.8675C7.23259 21.9373 7.07547 22.1056 6.94772 22.2416C6.66744 22.5399 6.05902 23.268 5.74947 23.6754C5.51562 23.9831 4.76615 25.1 4.59958 25.389C4.32261 25.8694 4.62924 24.7661 5.19949 23.2304C6.60277 19.4513 9.32043 16.4727 13.0008 14.6802Z" fill="#D4FF79"/>
<path d="M17.8213 19.3006C18.4853 19.1799 18.8338 19.1342 19.873 19.0319C19.9818 19.0212 20.503 19.0209 21.0311 19.0313C22.9662 19.0693 24.6728 19.4125 26.7453 20.1802C27.2961 20.3842 27.6366 20.5221 27.9287 20.6593C28.0664 20.7239 28.3904 20.8731 28.6488 20.9907C29.2536 21.2661 31.1244 22.2298 31.1004 22.2537C31.0904 22.2638 30.696 22.2159 30.2239 22.1474C24.9595 21.3831 20.8103 21.3371 16.7889 21.9981C15.3203 22.2395 14.2697 22.482 12.6547 22.9521C12.1155 23.1091 10.4973 23.6869 9.93547 23.923C8.71171 24.4374 7.53028 25.0218 6.67782 25.5346C6.40891 25.6963 6.18099 25.8208 6.1713 25.8111C6.13847 25.7783 7.11779 24.8141 7.61324 24.3915C10.1615 22.2177 12.4971 20.8809 15.5023 19.8761C16.2088 19.6399 16.9029 19.4677 17.8213 19.3006Z" fill="#D4FF79"/>
</svg>
